HIERARCHY
ROOT Hips
{
	OFFSET 0.000000 71.427986 0.000000
	CHANNELS 6 Xposition Yposition Zposition Xrotation Yrotation Zrotation
	JOINT Pelvis
	{
		OFFSET 0.000000 0.000000 0.000000
		CHANNELS 3 Xrotation Yrotation Zrotation
		JOINT LeftUpLeg
		{
			OFFSET 6.797100 -2.508499 -1.318700
			CHANNELS 3 Xrotation Yrotation Zrotation
			JOINT LeftLeg
			{
				OFFSET 0.069008 -29.241863 0.690200
				CHANNELS 3 Xrotation Yrotation Zrotation
				JOINT LeftFoot
				{
					OFFSET -0.069008 -29.568123 -0.266800
					CHANNELS 3 Xrotation Yrotation Zrotation
					JOINT LeftToeBase
					{
						OFFSET 3.145500 -8.631000 16.059900
						CHANNELS 3 Xrotation Yrotation Zrotation
						End Site
						{
							OFFSET 0.000000 18.501587 0.000000
						}
					}
				}
			}
			JOINT Left_ShortSleeve
			{
				OFFSET 0.265923 -10.480953 1.153800
				CHANNELS 3 Xrotation Yrotation Zrotation
				End Site
				{
					OFFSET 1.725763 19.823879 0.000000
				}
			}
		}
		JOINT RightUpLeg
		{
			OFFSET -6.797100 -2.508499 -1.318700
			CHANNELS 3 Xrotation Yrotation Zrotation
			JOINT RightLeg
			{
				OFFSET -0.082453 -29.241932 0.688000
				CHANNELS 3 Xrotation Yrotation Zrotation
				JOINT RightFoot
				{
					OFFSET 0.082453 -29.568058 -0.264600
					CHANNELS 3 Xrotation Yrotation Zrotation
					JOINT RightToeBase
					{
						OFFSET -3.115300 -8.682800 16.113400
						CHANNELS 3 Xrotation Yrotation Zrotation
						End Site
						{
							OFFSET 0.000000 18.567114 0.000000
						}
					}
				}
			}
			JOINT Right_ShortSleeve
			{
				OFFSET -0.265923 -10.480953 1.153800
				CHANNELS 3 Xrotation Yrotation Zrotation
				End Site
				{
					OFFSET -1.725766 19.823910 0.000000
				}
			}
		}
	}
	JOINT Spine
	{
		OFFSET 0.000000 13.368103 0.470500
		CHANNELS 3 Xrotation Yrotation Zrotation
		JOINT Spine1
		{
			OFFSET 0.147000 13.837402 0.538800
			CHANNELS 3 Xrotation Yrotation Zrotation
			JOINT Spine2
			{
				OFFSET 0.168000 16.242897 -1.435500
				CHANNELS 3 Xrotation Yrotation Zrotation
				JOINT Neck
				{
					OFFSET 0.217200 18.631500 -1.679100
					CHANNELS 3 Xrotation Yrotation Zrotation
					JOINT Head
					{
						OFFSET 0.000000 6.599396 1.385900
						CHANNELS 3 Xrotation Yrotation Zrotation
						JOINT Hat
						{
							OFFSET -0.532200 27.220596 -10.096100
							CHANNELS 3 Xrotation Yrotation Zrotation
							End Site
							{
								OFFSET 0.000000 22.029861 0.000000
							}
						}
						JOINT HairD
						{
							OFFSET -10.777400 17.437393 -1.325900
							CHANNELS 3 Xrotation Yrotation Zrotation
							JOINT HairD1
							{
								OFFSET -3.290299 -11.051193 1.062200
								CHANNELS 3 Xrotation Yrotation Zrotation
								End Site
								{
									OFFSET 0.000000 11.579437 0.000000
								}
							}
						}
						JOINT HairB
						{
							OFFSET -10.777400 17.437393 1.467900
							CHANNELS 3 Xrotation Yrotation Zrotation
							JOINT HairB1
							{
								OFFSET -1.561200 -12.956299 3.590200
								CHANNELS 3 Xrotation Yrotation Zrotation
								End Site
								{
									OFFSET 0.000000 13.534866 0.000000
								}
							}
						}
						JOINT HairA
						{
							OFFSET 9.713100 17.437393 1.467900
							CHANNELS 3 Xrotation Yrotation Zrotation
							JOINT HairA1
							{
								OFFSET 1.561200 -12.956299 3.590200
								CHANNELS 3 Xrotation Yrotation Zrotation
								End Site
								{
									OFFSET 0.000000 13.534866 0.000000
								}
							}
						}
						JOINT HairC
						{
							OFFSET 9.713100 17.437393 -1.325900
							CHANNELS 3 Xrotation Yrotation Zrotation
							JOINT HairC1
							{
								OFFSET 3.290300 -11.051193 1.062200
								CHANNELS 3 Xrotation Yrotation Zrotation
								End Site
								{
									OFFSET 0.000000 11.579437 0.000000
								}
							}
						}
					}
				}
				JOINT LeftShoulder
				{
					OFFSET 5.101800 15.108002 -2.763700
					CHANNELS 3 Xrotation Yrotation Zrotation
					JOINT LeftArm
					{
						OFFSET 9.825497 2.506317 -1.597400
						CHANNELS 3 Xrotation Yrotation Zrotation
						JOINT LeftForeArm
						{
							OFFSET 21.966244 0.000000 0.000000
							CHANNELS 3 Xrotation Yrotation Zrotation
							JOINT LeftHand
							{
								OFFSET 33.879036 0.000000 0.000000
								CHANNELS 3 Xrotation Yrotation Zrotation
								JOINT LeftHandThumb1
								{
									OFFSET 6.715286 -2.359680 3.363841
									CHANNELS 3 Xrotation Yrotation Zrotation
									JOINT LeftHandThumb2
									{
										OFFSET 2.507072 -1.447464 1.447461
										CHANNELS 3 Xrotation Yrotation Zrotation
										JOINT LeftHandThumb3
										{
											OFFSET 2.898338 -1.673355 1.673357
											CHANNELS 3 Xrotation Yrotation Zrotation
											End Site
											{
												OFFSET -0.295959 3.727692 -0.131651
											}
										}
									}
								}
								JOINT LeftHandIndex1
								{
									OFFSET 14.190811 -0.254547 3.840278
									CHANNELS 3 Xrotation Yrotation Zrotation
									JOINT LeftHandIndex2
									{
										OFFSET 3.551727 0.000000 -0.000000
										CHANNELS 3 Xrotation Yrotation Zrotation
										JOINT LeftHandIndex3
										{
											OFFSET 2.894196 0.000000 0.000000
											CHANNELS 3 Xrotation Yrotation Zrotation
											End Site
											{
												OFFSET -1.000603 2.690872 0.366626
											}
										}
									}
								}
								JOINT LeftHandMiddle1
								{
									OFFSET 13.776489 0.000000 0.000000
									CHANNELS 3 Xrotation Yrotation Zrotation
									JOINT LeftHandMiddle2
									{
										OFFSET 3.438232 0.000000 0.000000
										CHANNELS 3 Xrotation Yrotation Zrotation
										JOINT LeftHandMiddle3
										{
											OFFSET 3.691551 0.000000 0.000000
											CHANNELS 3 Xrotation Yrotation Zrotation
											End Site
											{
												OFFSET -1.082298 3.499527 0.457670
											}
										}
									}
								}
								JOINT LeftHandRing1
								{
									OFFSET 13.966164 -0.268127 -3.067488
									CHANNELS 3 Xrotation Yrotation Zrotation
									JOINT LeftHandRing2
									{
										OFFSET 3.162567 0.000000 0.000000
										CHANNELS 3 Xrotation Yrotation Zrotation
										JOINT LeftHandRing3
										{
											OFFSET 3.324348 0.000000 0.000000
											CHANNELS 3 Xrotation Yrotation Zrotation
											End Site
											{
												OFFSET -0.861900 3.184998 0.405154
											}
										}
									}
								}
								JOINT LeftHandPinky1
								{
									OFFSET 13.131393 -0.168503 -5.746925
									CHANNELS 3 Xrotation Yrotation Zrotation
									JOINT LeftHandPinky2
									{
										OFFSET 2.849182 0.000000 0.000000
										CHANNELS 3 Xrotation Yrotation Zrotation
										JOINT LeftHandPinky3
										{
											OFFSET 2.805038 0.000000 0.000000
											CHANNELS 3 Xrotation Yrotation Zrotation
											End Site
											{
												OFFSET -0.882500 2.642609 0.325652
											}
										}
									}
								}
							}
							JOINT Left_Sleeve
							{
								OFFSET 6.592125 -0.646545 0.805568
								CHANNELS 3 Xrotation Yrotation Zrotation
								End Site
								{
									OFFSET -0.000179 20.275787 -0.000000
								}
							}
						}
					}
				}
				JOINT RightShoulder
				{
					OFFSET -5.731700 15.108002 -2.763700
					CHANNELS 3 Xrotation Yrotation Zrotation
					JOINT RightArm
					{
						OFFSET -9.825497 2.506317 -1.597400
						CHANNELS 3 Xrotation Yrotation Zrotation
						JOINT RightForeArm
						{
							OFFSET -21.966242 0.000000 0.000000
							CHANNELS 3 Xrotation Yrotation Zrotation
							JOINT RightHand
							{
								OFFSET -33.879032 0.000000 0.000000
								CHANNELS 3 Xrotation Yrotation Zrotation
								JOINT RightHandThumb1
								{
									OFFSET -6.715286 -2.359680 3.363841
									CHANNELS 3 Xrotation Yrotation Zrotation
									JOINT RightHandThumb2
									{
										OFFSET -2.507072 -1.447464 1.447461
										CHANNELS 3 Xrotation Yrotation Zrotation
										JOINT RightHandThumb3
										{
											OFFSET -2.898338 -1.673355 1.673357
											CHANNELS 3 Xrotation Yrotation Zrotation
											End Site
											{
												OFFSET 0.295959 3.727692 -0.131651
											}
										}
									}
								}
								JOINT RightHandIndex1
								{
									OFFSET -14.190811 -0.254547 3.840278
									CHANNELS 3 Xrotation Yrotation Zrotation
									JOINT RightHandIndex2
									{
										OFFSET -3.551727 0.000000 -0.000000
										CHANNELS 3 Xrotation Yrotation Zrotation
										JOINT RightHandIndex3
										{
											OFFSET -2.894196 0.000000 0.000000
											CHANNELS 3 Xrotation Yrotation Zrotation
											End Site
											{
												OFFSET 1.000603 2.690872 0.366626
											}
										}
									}
								}
								JOINT RightHandMiddle1
								{
									OFFSET -13.776489 0.000000 0.000000
									CHANNELS 3 Xrotation Yrotation Zrotation
									JOINT RightHandMiddle2
									{
										OFFSET -3.438232 0.000000 0.000000
										CHANNELS 3 Xrotation Yrotation Zrotation
										JOINT RightHandMiddle3
										{
											OFFSET -3.691551 0.000000 0.000000
											CHANNELS 3 Xrotation Yrotation Zrotation
											End Site
											{
												OFFSET 1.082298 3.499527 0.457670
											}
										}
									}
								}
								JOINT RightHandRing1
								{
									OFFSET -13.966164 -0.268127 -3.067488
									CHANNELS 3 Xrotation Yrotation Zrotation
									JOINT RightHandRing2
									{
										OFFSET -3.162567 0.000000 0.000000
										CHANNELS 3 Xrotation Yrotation Zrotation
										JOINT RightHandRing3
										{
											OFFSET -3.324348 0.000000 0.000000
											CHANNELS 3 Xrotation Yrotation Zrotation
											End Site
											{
												OFFSET 0.861900 3.184998 0.405154
											}
										}
									}
								}
								JOINT RightHandPinky1
								{
									OFFSET -13.131393 -0.168503 -5.746925
									CHANNELS 3 Xrotation Yrotation Zrotation
									JOINT RightHandPinky2
									{
										OFFSET -2.849182 0.000000 0.000000
										CHANNELS 3 Xrotation Yrotation Zrotation
										JOINT RightHandPinky3
										{
											OFFSET -2.805038 0.000000 0.000000
											CHANNELS 3 Xrotation Yrotation Zrotation
											End Site
											{
												OFFSET 0.882500 2.642609 0.325652
											}
										}
									}
								}
							}
							JOINT Right_Sleeve
							{
								OFFSET -6.592125 -0.646545 0.805568
								CHANNELS 3 Xrotation Yrotation Zrotation
								End Site
								{
									OFFSET 0.000179 20.275787 -0.000000
								}
							}
						}
					}
				}
				JOINT Bind_Right_JacketString
				{
					OFFSET -3.534800 11.969597 7.200700
					CHANNELS 3 Xrotation Yrotation Zrotation
					JOINT Bind_Right_JacketString1
					{
						OFFSET -0.319900 -6.102600 2.794100
						CHANNELS 3 Xrotation Yrotation Zrotation
						End Site
						{
							OFFSET 0.000000 6.719452 0.000000
						}
					}
				}
				JOINT Bind_Left_JacketString
				{
					OFFSET 2.904800 11.969597 7.200700
					CHANNELS 3 Xrotation Yrotation Zrotation
					JOINT Bind_Left_JacketString1
					{
						OFFSET 0.364800 -5.904503 3.186800
						CHANNELS 3 Xrotation Yrotation Zrotation
						End Site
						{
							OFFSET 0.000000 6.719513 0.000000
						}
					}
				}
				JOINT HairE
				{
					OFFSET 5.915200 17.612701 -11.592200
					CHANNELS 3 Xrotation Yrotation Zrotation
					JOINT HairE1
					{
						OFFSET 0.289200 -7.171898 -1.284500
						CHANNELS 3 Xrotation Yrotation Zrotation
						End Site
						{
							OFFSET 0.000000 7.291756 0.000000
						}
					}
				}
				JOINT HairF
				{
					OFFSET -0.864800 17.612701 -11.592200
					CHANNELS 3 Xrotation Yrotation Zrotation
					JOINT HairF1
					{
						OFFSET 0.000000 -14.087097 -2.127501
						CHANNELS 3 Xrotation Yrotation Zrotation
						End Site
						{
							OFFSET 0.000000 14.246841 0.000000
						}
					}
				}
				JOINT HairG
				{
					OFFSET -8.087700 17.612701 -11.592200
					CHANNELS 3 Xrotation Yrotation Zrotation
					JOINT HairG1
					{
						OFFSET -0.293600 -6.081398 -0.910100
						CHANNELS 3 Xrotation Yrotation Zrotation
						End Site
						{
							OFFSET 0.000000 6.156120 0.000000
						}
					}
				}
			}
		}
	}
	JOINT Pouch
	{
		OFFSET 0.000000 4.394501 10.847300
		CHANNELS 3 Xrotation Yrotation Zrotation
		End Site
		{
			OFFSET 0.000000 21.880577 0.000000
		}
	}
	JOINT Bag
	{
		OFFSET -13.229000 4.813004 -0.593300
		CHANNELS 3 Xrotation Yrotation Zrotation
		End Site
		{
			OFFSET 0.000000 21.880577 0.000000
		}
	}
	JOINT OccupyGuyFacialAnim_Joint
	{
		OFFSET 1.000000 -70.206398 -1.655000
		CHANNELS 3 Xrotation Yrotation Zrotation
		End Site
		{
			OFFSET 0.000000 21.880577 0.000000
		}
	}
}
MOTION
Frames: 4
Frame Time: 0.033333
-1.565362 64.682220 1.109868 -0.004699 -53.425296 1.722513 -0.000000 -0.000003 -0.000000 -87.411122 8.673236 36.796568 124.983473 -13.319286 1.167327 43.698290 14.938378 -9.529559 0.000000 -0.000000 0.000001 -0.000000 0.000001 -0.000002 -96.762211 3.886579 -26.901054 137.085339 7.182686 -0.377263 36.143636 -5.148379 -8.360185 0.000000 0.000000 -0.000001 -0.000000 0.000000 -0.000000 16.409716 -0.433298 -0.194257 4.867871 -0.747489 0.541064 8.411626 -0.790999 0.521678 -0.967834 4.305024 -1.970998 0.049369 24.294566 -0.559518 -0.000001 0.000001 -0.000001 -0.000001 0.000001 -0.000001 -0.000001 0.000001 -0.000001 -0.000001 0.000001 -0.000002 -0.000001 0.000003 -0.000002 -0.000001 0.000001 -0.000002 -0.000001 0.000003 -0.000002 -0.000001 0.000001 -0.000001 -0.000001 0.000001 -0.000001 -6.353660 -19.941938 -1.266671 -39.532278 25.322236 -53.719776 -84.205851 4.403771 -94.388092 -38.515198 -2.728771 12.911834 0.699116 9.503382 -2.418121 5.975202 12.647533 1.348338 0.000001 0.000002 -0.000000 9.479711 -1.289794 -20.785567 0.709465 2.796456 -28.467129 0.000001 0.000001 -0.000000 10.058160 -1.800603 -20.644730 1.774256 4.200490 -45.782075 0.000005 -0.000001 0.000002 1.254235 -0.073726 -17.945777 3.754115 5.463603 -68.965294 -0.000001 0.000002 -0.000001 -7.938257 1.609073 -6.495678 2.210576 4.583666 -51.475202 0.000000 -0.000003 0.000001 0.000003 0.000004 -0.000000 -17.811325 19.118779 3.643956 -8.593680 37.169152 58.527399 -99.224931 50.316508 101.033866 3.515409 6.521677 2.165904 13.942467 -4.273704 -5.300379 7.113188 -20.767527 -2.619513 -0.000000 0.000000 -0.000001 0.357779 -5.832717 5.175846 0.094369 -0.933606 11.539880 -0.000002 -0.000001 -0.000002 3.764128 -12.080493 1.143767 5.714277 -4.535891 103.133527 0.000000 -0.000001 0.000001 -12.155597 -12.623905 9.228320 6.566888 -4.248469 114.232318 0.000001 0.000000 -0.000002 -17.635736 -10.496854 3.325434 4.993639 -4.645019 94.147908 -0.000000 0.000003 -0.000001 -0.000001 -0.000000 -0.000001 -0.000000 -0.000000 -0.000000 -0.000000 -0.000002 0.000001 -0.000000 -0.000000 -0.000000 -0.000000 -0.000000 -0.000000 -0.000000 -0.000000 -0.000000 -0.000000 -0.000002 0.000001 -0.000000 -0.000000 -0.000000 -0.000000 -0.000000 -0.000000 -0.000000 -0.000000 -0.000000 -0.000000 -0.000002 0.000001 -0.000000 -0.000003 -0.000000 -0.000000 -0.000003 -0.000000 -0.000000 -0.000003 -0.000000 
-1.558495 64.685944 1.113130 -0.004011 -53.438461 1.694206 0.000000 -0.000001 0.000000 -87.674617 8.670859 36.745516 125.409144 -12.556583 1.171008 43.762702 14.176789 -8.931762 0.000000 0.000000 -0.000002 -0.000000 0.000000 -0.000002 -96.619603 3.973024 -26.897094 137.000508 8.364732 -0.300442 35.389099 -4.751607 -8.259134 -0.000002 0.000000 0.000000 -0.000000 0.000000 -0.000000 16.411787 -0.412810 -0.173586 4.867869 -0.747492 0.541067 8.408522 -0.791153 0.521922 -0.963847 4.305099 -1.972932 0.065801 24.293933 -0.569900 -0.000000 0.000000 -0.000001 -0.000000 0.000000 -0.000001 -0.000000 0.000000 -0.000001 -0.000000 0.000000 -0.000001 -0.000003 0.000000 -0.000000 -0.000000 0.000000 -0.000001 -0.000003 0.000000 -0.000000 -0.000000 0.000000 -0.000001 -0.000000 0.000000 -0.000001 -6.353655 -19.941934 -1.266670 -39.550576 25.293927 -53.755867 -84.210741 4.374588 -94.350853 -38.536583 -2.750438 12.897684 0.699119 9.503383 -2.418121 5.975198 12.647530 1.348336 -0.000000 0.000001 -0.000001 9.479712 -1.289793 -20.785567 0.709466 2.796452 -28.467129 0.000002 -0.000002 0.000001 10.058161 -1.800608 -20.644735 1.774258 4.200489 -45.782078 0.000004 0.000001 0.000003 1.254235 -0.073727 -17.945781 3.754112 5.463603 -68.965294 0.000000 0.000000 -0.000001 -7.938255 1.609070 -6.495677 2.210576 4.583667 -51.475202 -0.000001 0.000004 -0.000002 0.000001 -0.000006 0.000001 -17.811217 19.118068 3.643724 -8.607823 37.129400 58.505256 -99.220758 50.276992 101.034597 3.544455 6.477447 2.201154 13.942463 -4.273705 -5.300378 7.113188 -20.767530 -2.619514 -0.000001 0.000000 -0.000000 0.357779 -5.832718 5.175844 0.094367 -0.933600 11.539880 0.000000 0.000000 -0.000001 3.764128 -12.080497 1.143767 5.714278 -4.535889 103.133534 0.000000 0.000001 0.000001 -12.155595 -12.623905 9.228320 6.566885 -4.248470 114.232318 -0.000000 -0.000003 -0.000004 -17.635735 -10.496856 3.325434 4.993639 -4.645020 94.147915 0.000001 0.000003 0.000001 -0.000001 0.000000 0.000000 0.000003 0.000002 -0.000001 0.000003 0.000000 -0.000000 0.000003 0.000002 -0.000002 0.000003 0.000002 -0.000002 0.000003 0.000002 -0.000001 0.000003 0.000000 0.000000 0.000003 0.000002 -0.000002 0.000003 0.000002 -0.000002 0.000003 0.000002 -0.000001 0.000003 0.000000 0.000000 0.000000 -0.000001 0.000000 0.000000 -0.000001 0.000000 0.000000 -0.000001 0.000000 
-1.548937 64.689842 1.115406 -0.003261 -53.453163 1.660045 0.000000 0.000000 -0.000000 -87.820100 8.595225 36.734168 126.058299 -13.058560 1.072775 43.784672 14.281998 -9.077916 -0.000000 0.000000 -0.000001 -0.000000 0.000000 0.000002 -96.378163 4.042212 -26.986989 136.780262 9.357789 -0.252717 34.598730 -4.049288 -8.371366 -0.000000 0.000001 -0.000001 -0.000000 0.000000 -0.000000 16.423388 -0.389648 -0.159710 4.867871 -0.747488 0.541065 8.420700 -0.795327 0.510595 -0.954754 4.303645 -1.978560 0.124797 24.288049 -0.612329 0.000001 0.000002 0.000001 0.000001 0.000002 0.000001 0.000001 0.000002 0.000000 0.000001 0.000002 0.000001 -0.000000 0.000000 0.000001 0.000001 0.000002 0.000001 -0.000000 0.000000 0.000001 0.000001 0.000002 0.000001 0.000001 0.000002 0.000001 -6.353659 -19.941936 -1.266670 -39.589071 25.236173 -53.774697 -84.213555 4.353521 -94.333635 -38.559877 -2.791989 12.889877 0.699117 9.503388 -2.418120 5.975200 12.647533 1.348335 0.000001 -0.000001 -0.000001 9.479712 -1.289790 -20.785562 0.709464 2.796453 -28.467125 0.000001 0.000001 -0.000000 10.058161 -1.800602 -20.644730 1.774257 4.200491 -45.782075 0.000003 -0.000001 -0.000001 1.254237 -0.073717 -17.945776 3.754115 5.463607 -68.965294 -0.000001 0.000001 -0.000001 -7.938257 1.609075 -6.495675 2.210575 4.583664 -51.475202 -0.000000 0.000000 0.000003 -0.000000 0.000000 0.000001 -17.810973 19.116771 3.643299 -8.635303 37.071504 58.475558 -99.250100 50.226083 101.080024 3.575483 6.415865 2.230712 13.942465 -4.273704 -5.300378 7.113190 -20.767527 -2.619514 0.000000 0.000000 -0.000000 0.357780 -5.832716 5.175844 0.094368 -0.933607 11.539880 0.000001 0.000002 0.000002 3.764127 -12.080497 1.143768 5.714277 -4.535889 103.133527 -0.000001 -0.000001 -0.000001 -12.155596 -12.623906 9.228316 6.566886 -4.248470 114.232318 0.000000 0.000000 0.000000 -17.635738 -10.496853 3.325435 4.993636 -4.645018 94.147915 -0.000001 0.000002 0.000001 -0.000002 -0.000000 -0.000000 -0.000001 0.000001 0.000001 0.000001 0.000000 0.000000 -0.000001 0.000001 -0.000000 -0.000001 0.000001 -0.000000 -0.000001 0.000001 0.000001 0.000001 0.000000 0.000001 -0.000001 0.000001 -0.000000 -0.000001 0.000001 -0.000000 -0.000001 0.000001 0.000001 0.000001 0.000000 0.000001 0.000000 0.000000 -0.000000 0.000000 0.000000 -0.000000 0.000000 0.000000 -0.000000 
-1.537408 64.695259 1.116238 -0.002558 -53.467312 1.624975 0.000000 -0.000003 0.000000 -87.902561 8.517301 36.723779 126.832706 -13.171212 0.987196 43.559911 14.077357 -8.918423 0.000000 0.000000 -0.000001 -0.000000 0.000000 -0.000000 -96.062936 4.094806 -27.145026 136.456620 10.207950 -0.225877 33.811680 -3.155035 -8.610008 -0.000002 -0.000000 0.000000 0.000000 0.000000 -0.000001 16.440831 -0.379096 -0.152089 4.867867 -0.747490 0.541064 8.439042 -0.819224 0.492779 -0.939166 4.299368 -1.986955 0.214599 24.274581 -0.678548 0.000001 -0.000002 0.000002 0.000001 -0.000002 0.000002 0.000001 -0.000002 0.000001 0.000001 -0.000002 0.000002 -0.000001 -0.000001 -0.000000 0.000001 -0.000002 0.000002 -0.000001 -0.000001 -0.000000 0.000001 -0.000002 0.000002 0.000001 -0.000002 0.000002 -6.353661 -19.941938 -1.266671 -39.635383 25.214685 -53.752127 -84.210782 4.343639 -94.381514 -38.576232 -2.862587 12.914698 0.699120 9.503385 -2.418121 5.975201 12.647530 1.348335 0.000002 0.000001 -0.000001 9.479711 -1.289792 -20.785569 0.709464 2.796451 -28.467131 0.000001 -0.000001 0.000001 10.058161 -1.800603 -20.644732 1.774257 4.200488 -45.782082 0.000003 0.000001 0.000003 1.254236 -0.073728 -17.945782 3.754111 5.463604 -68.965294 -0.000000 0.000001 0.000002 -7.938257 1.609074 -6.495676 2.210579 4.583673 -51.475198 -0.000000 -0.000000 -0.000001 0.000001 -0.000001 -0.000002 -17.810791 19.115939 3.643012 -8.704816 37.031148 58.481760 -99.276957 50.176977 101.122248 3.604074 6.344444 2.280511 13.942465 -4.273706 -5.300379 7.113188 -20.767523 -2.619514 -0.000001 -0.000001 -0.000000 0.357779 -5.832719 5.175844 0.094369 -0.933606 11.539882 -0.000001 0.000001 -0.000001 3.764127 -12.080496 1.143767 5.714277 -4.535889 103.133527 -0.000001 -0.000000 -0.000001 -12.155599 -12.623907 9.228323 6.566888 -4.248470 114.232325 0.000000 -0.000000 0.000002 -17.635738 -10.496856 3.325435 4.993643 -4.645021 94.147915 -0.000001 0.000001 -0.000001 -0.000001 0.000000 0.000000 -0.000000 0.000001 -0.000000 -0.000000 0.000003 -0.000002 -0.000000 0.000001 -0.000001 -0.000000 0.000001 -0.000001 -0.000000 0.000001 -0.000000 -0.000000 0.000003 -0.000002 -0.000000 0.000001 -0.000001 -0.000000 0.000001 -0.000001 -0.000000 0.000001 -0.000000 -0.000000 0.000003 -0.000002 0.000000 -0.000003 0.000000 0.000000 -0.000003 0.000000 0.000000 -0.000003 0.000000 
